<svg xmlns="http://www.w3.org/2000/svg" width="100" height="116" viewBox="0 0 100 116" fill="none">
  <g clip-path="url(#clip0_66_4792)">
    <path d="M30.8145 0.330722C30.2478 0.33436 29.6909 0.478594 29.1941 0.750403C27.563 1.65143 26.9647 3.73981 27.8685 5.3642L31.5512 11.9912C22.6783 17.4617 16.799 26.8065 16.799 37.4719V39.4536C15.0948 37.4997 12.59 36.2661 9.7913 36.2661C4.66341 36.2661 0.5 40.4151 0.5 45.5249V74.0466C0.5 79.156 4.6638 83.3054 9.7913 83.3054C12.59 83.3054 15.0948 82.0714 16.7986 80.1175V84.1128C16.7986 89.4993 21.2215 93.9065 26.6267 93.9065H29.1203V106.594C29.1203 111.705 33.2841 115.854 38.4116 115.854C43.5391 115.854 47.7025 111.704 47.7025 106.594V93.9065H52.0167V106.594C52.0167 111.705 56.1805 115.854 61.308 115.854C66.4355 115.854 70.599 111.704 70.599 106.594V93.9065H73.0929C78.4977 93.9065 82.9206 89.4993 82.9206 84.1128V80.1175C84.6245 82.0714 87.1296 83.3054 89.9283 83.3054C95.0558 83.3054 99.2192 79.156 99.2192 74.0466V45.5249C99.2192 40.4151 95.0558 36.2661 89.9283 36.2661C87.1296 36.2661 84.6245 37.4997 82.9206 39.4536V37.8072V37.7128C82.9214 37.6126 82.9206 37.5324 82.9206 37.4719C82.9206 26.8084 77.0278 17.4729 68.158 12.002L71.8512 5.3642C72.7545 3.73981 72.1567 1.65143 70.5255 0.750403C70.0287 0.478594 69.4718 0.33436 68.9051 0.330722C67.7005 0.319161 66.5183 0.951958 65.8957 2.07149L62.0339 9.02379C58.258 7.63526 54.1495 6.87413 49.86 6.87413C45.5744 6.87413 41.4582 7.62716 37.6853 9.013L33.8239 2.07149C33.2009 0.951958 32.0191 0.319931 30.8145 0.330722Z" fill="white"/>
    <path d="M9.79271 38.6777C5.96651 38.6777 2.92188 41.7118 2.92188 45.5248V74.0466C2.92188 77.8595 5.96651 80.8936 9.79271 80.8936C13.6189 80.8936 16.6639 77.8595 16.6639 74.0466V45.5248C16.6639 41.7118 13.6189 38.6777 9.79271 38.6777ZM89.9301 38.6777C86.1035 38.6777 83.0589 41.7118 83.0589 45.5248V74.0466C83.0589 77.8595 86.1035 80.8936 89.9301 80.8936C93.7563 80.8936 96.8009 77.8595 96.8009 74.0466V45.5248C96.8009 41.7118 93.7563 38.6777 89.9301 38.6777Z" fill="#A4C639"/>
    <path d="M38.4103 71.2256C34.5841 71.2256 31.5391 74.2597 31.5391 78.0731V106.594C31.5391 110.407 34.5841 113.442 38.4103 113.442C42.2365 113.442 45.2811 110.407 45.2811 106.594V78.0731C45.2811 74.2597 42.2365 71.2256 38.4103 71.2256ZM61.3067 71.2256C57.4802 71.2256 54.4355 74.2597 54.4355 78.0731V106.594C54.4355 110.407 57.4802 113.442 61.3067 113.442C65.1329 113.442 68.1776 110.407 68.1776 106.594V78.0731C68.1776 74.2597 65.1329 71.2256 61.3067 71.2256Z" fill="#A4C639"/>
    <path d="M30.835 2.74281C30.6725 2.74476 30.5132 2.788 30.3721 2.86845C29.8822 3.13898 29.7213 3.7001 29.9931 4.18953L34.8337 12.9034C25.5215 17.7322 19.2311 26.9086 19.2188 37.4403H80.5001C80.4874 26.9086 74.1974 17.7319 64.8852 12.9034L69.7254 4.18992C69.9976 3.70048 69.8364 3.13898 69.3464 2.86845C69.2054 2.78796 69.046 2.74471 68.8835 2.74281C68.5355 2.73896 68.2064 2.91238 68.0207 3.24612L63.1171 12.054C59.1061 10.2813 54.607 9.28583 49.8593 9.28583C45.1115 9.28583 40.6128 10.2809 36.6014 12.054L31.6978 3.24612C31.6142 3.09151 31.4895 2.96278 31.3374 2.87402C31.1853 2.78525 31.0116 2.73986 30.8354 2.74281H30.835ZM19.2188 39.852V84.1131C19.2167 85.0831 19.4069 86.044 19.7784 86.9405C20.1499 87.837 20.6955 88.6516 21.3838 89.3375C22.072 90.0234 22.8895 90.567 23.7892 90.9372C24.6888 91.3074 25.653 91.4969 26.6264 91.4947H73.0926C74.0659 91.4969 75.0302 91.3074 75.9299 90.9372C76.8295 90.5669 77.647 90.0233 78.3353 89.3374C79.0236 88.6515 79.5691 87.8368 79.9406 86.9402C80.3121 86.0436 80.5023 85.0828 80.5001 84.1127V39.8524H19.2188V39.852Z" fill="#A4C639"/>
    <path d="M35.7171 21.1663C34.3184 21.1663 33.1602 22.3201 33.1602 23.714C33.1602 25.1083 34.3184 26.2622 35.7171 26.2622C37.1163 26.2622 38.2741 25.1083 38.2741 23.714C38.2741 22.3201 37.1163 21.1663 35.7171 21.1663ZM64.001 21.1663C62.6018 21.1663 61.444 22.3201 61.444 23.714C61.444 25.1083 62.6018 26.2622 64.001 26.2622C65.3997 26.2622 66.5579 25.1083 66.5579 23.714C66.5579 22.3201 65.3997 21.1663 64.001 21.1663Z" fill="white"/>
  </g>
  <defs>
    <clipPath id="clip0_66_4792">
      <rect width="99" height="116" fill="white" transform="translate(0.5)"/>
    </clipPath>
  </defs>
</svg>