<svg xmlns="http://www.w3.org/2000/svg" width="27" height="23" viewBox="0 0 27 23" fill="none">
  <path d="M25.3125 1.00244H0.9375C0.418945 1.00244 0 1.42139 0 1.93994V20.6899C0 21.2085 0.418945 21.6274 0.9375 21.6274H25.3125C25.8311 21.6274 26.25 21.2085 26.25 20.6899V1.93994C26.25 1.42139 25.8311 1.00244 25.3125 1.00244ZM24.1406 4.24853V19.5181H2.10938V4.24853L1.30078 3.61865L2.45215 2.13916L3.70605 3.11475H22.5469L23.8008 2.13916L24.9521 3.61865L24.1406 4.24853ZM22.5469 3.11182L13.125 10.436L3.70312 3.11182L2.44922 2.13623L1.29785 3.61572L2.10645 4.24561L12.1143 12.0269C12.4021 12.2505 12.7561 12.3718 13.1206 12.3718C13.4851 12.3718 13.8391 12.2505 14.127 12.0269L24.1406 4.24853L24.9492 3.61865L23.7979 2.13916L22.5469 3.11182Z" fill="#EF2779"/>
</svg>