<svg width="18" height="18" viewBox="0 0 16 16" fill="none" xmlns="http://www.w3.org/2000/svg">
<path d="M6.52403 15.8684C8.02267 15.2461 7.69432 13.5301 6.93658 12.4453C6.18725 11.3339 5.15168 10.5693 4.10768 9.83131C3.36278 9.3355 2.69768 8.71718 2.13755 7.99972C1.90181 7.70631 1.42191 7.16395 1.91023 7.05725C2.40697 6.95056 3.26574 7.46625 3.70355 7.66186C4.46971 7.99972 5.22745 8.39094 5.93467 8.85328L6.78503 7.34177C5.47161 6.42598 3.78774 5.61688 2.22174 5.37682C1.32929 5.23456 0.386327 5.43017 0.0832306 6.45265C-0.186188 7.33288 0.243198 8.222 0.73152 8.91552C1.88497 10.5426 3.67829 11.325 5.01697 12.7298C5.30322 13.0233 5.64842 13.37 5.8168 13.779C5.99361 14.1702 5.95151 14.1969 5.5558 14.1969C4.51181 14.1969 3.20681 13.3344 2.35645 12.7654L1.5061 14.2769C2.79426 15.1127 4.94961 16.4197 6.52403 15.8684ZM15.8611 1.99816C16.0463 1.80256 16.0463 1.48247 15.8611 1.29576L14.7666 0.139901C14.6784 0.0501483 14.5607 0 14.4382 0C14.3157 0 14.198 0.0501483 14.1099 0.139901L13.2511 1.0468L15.0023 2.89617L15.8611 1.99816ZM7.57645 7.03947V8.88884H9.32767L14.5056 3.42075L12.7543 1.57138L7.57645 7.03947Z" fill="white"/>
</svg>
