<svg width="18" height="18" viewBox="0 0 18 18" fill="none" xmlns="http://www.w3.org/2000/svg">
<rect width="18" height="18" fill="#E5E5E5"/>
<g id="iPhone 11 Pro Max - 3" clip-path="url(#clip0_65_0)">
<rect width="418" height="9873.3" transform="translate(-94 -1249)" fill="white"/>
<g id="Mobile FEATURE light 2" clip-path="url(#clip1_65_0)">
<rect width="418" height="1109" transform="translate(-94 -367)" fill="white"/>
<g id="content">
<g id="# Items">
<g id="@ feature-style-1" clip-path="url(#clip2_65_0)">
<g id="HEADLINE" clip-path="url(#clip3_65_0)">
<g id="ic:round-restaurant-menu">
<rect x="-12.5" y="-12.5" width="43" height="43" rx="21.5" fill="#EF2779"/>
<path id="Vector" d="M5.09265 10.2387L7.72386 7.60752L1.96867 1.86162C1.52239 1.41534 0.750691 1.53621 0.471764 2.11266C-0.188363 3.49799 0.0533739 5.19945 1.19697 6.35234L5.09265 10.2387ZM11.3964 8.55587C12.8189 9.21599 14.8179 8.75112 16.2962 7.2728C18.0721 5.49697 18.4161 2.94944 17.0493 1.5827C15.6919 0.225251 13.1443 0.559964 11.3592 2.3358C9.8809 3.81411 9.41602 5.81309 10.0761 7.23561L1.65255 15.6592C1.47871 15.833 1.38105 16.0688 1.38105 16.3147C1.38105 16.5605 1.47871 16.7963 1.65255 16.9702C1.8264 17.144 2.06218 17.2417 2.30803 17.2417C2.55389 17.2417 2.78967 17.144 2.96351 16.9702L8.7187 11.2336L14.4646 16.9795C14.5507 17.0655 14.6529 17.1338 14.7653 17.1804C14.8778 17.227 14.9983 17.251 15.1201 17.251C15.2418 17.251 15.3624 17.227 15.4748 17.1804C15.5873 17.1338 15.6895 17.0655 15.7756 16.9795C15.8616 16.8934 15.9299 16.7912 15.9765 16.6787C16.0231 16.5663 16.0471 16.4457 16.0471 16.324C16.0471 16.2022 16.0231 16.0817 15.9765 15.9692C15.9299 15.8568 15.8616 15.7546 15.7756 15.6685L10.0297 9.92261L11.3964 8.55587Z" fill="white"/>
</g>
</g>
</g>
</g>
</g>
</g>
</g>
<defs>
<clipPath id="clip0_65_0">
<rect width="418" height="9873.3" fill="white" transform="translate(-94 -1249)"/>
</clipPath>
<clipPath id="clip1_65_0">
<rect width="418" height="1109" fill="white" transform="translate(-94 -367)"/>
</clipPath>
<clipPath id="clip2_65_0">
<rect width="255" height="187" fill="white" transform="translate(-12.5 -34)"/>
</clipPath>
<clipPath id="clip3_65_0">
<rect width="250" height="86" fill="white" transform="translate(-12.5 -34)"/>
</clipPath>
</defs>
</svg>
