<svg xmlns="http://www.w3.org/2000/svg" width="26" height="33" viewBox="0 0 26 33" fill="none">
  <g clip-path="url(#clip0_67_7968)">
    <path d="M13.0013 19.4816C16.4941 19.4816 19.3346 16.6411 19.3346 13.1483C19.3346 9.65544 16.4941 6.81494 13.0013 6.81494C9.50847 6.81494 6.66797 9.65544 6.66797 13.1483C6.66797 16.6411 9.50847 19.4816 13.0013 19.4816ZM13.0013 9.98161C14.7477 9.98161 16.168 11.4019 16.168 13.1483C16.168 14.8947 14.7477 16.3149 13.0013 16.3149C11.2549 16.3149 9.83464 14.8947 9.83464 13.1483C9.83464 11.4019 11.2549 9.98161 13.0013 9.98161Z" fill="#EF2779"/>
    <path d="M11.7485 31.8536C12.0164 32.045 12.3375 32.1479 12.6668 32.1479C12.9961 32.1479 13.3172 32.045 13.5851 31.8536C14.0665 31.5132 25.3794 23.3448 25.3335 13.1481C25.3335 6.16403 19.6509 0.481445 12.6668 0.481445C5.68272 0.481445 0.000139393 6.16403 0.000139393 13.1402C-0.0457773 23.3448 11.2671 31.5132 11.7485 31.8536ZM12.6668 3.64811C17.9061 3.64811 22.1668 7.90886 22.1668 13.156C22.2001 20.1829 15.2191 26.4924 12.6668 28.5619C10.1161 26.4909 3.13356 20.1797 3.16681 13.1481C3.16681 7.90886 7.42756 3.64811 12.6668 3.64811Z" fill="#EF2779"/>
  </g>
  <defs>
    <clipPath id="clip0_67_7968">
      <rect width="26" height="32" fill="white" transform="translate(0 0.314941)"/>
    </clipPath>
  </defs>
</svg>