<svg xmlns="http://www.w3.org/2000/svg" width="41" height="41" viewBox="0 0 42 42" fill="none">
  <path d="M37.665 10.5066C36.4402 11.0349 35.1073 11.4152 33.7344 11.5633C35.1598 10.7165 36.2272 9.37865 36.7364 7.80083C35.3988 8.5965 33.9336 9.15444 32.4056 9.4499C31.7669 8.76716 30.9945 8.22326 30.1365 7.85209C29.2785 7.48092 28.3532 7.29043 27.4183 7.2925C23.6359 7.2925 20.5939 10.3585 20.5939 14.1209C20.5939 14.6493 20.6579 15.1776 20.762 15.6859C15.0983 15.3898 10.0471 12.684 6.68889 8.54131C6.07699 9.58645 5.75634 10.7765 5.76028 11.9875C5.76028 14.3571 6.96507 16.4464 8.80226 17.6752C7.71957 17.6326 6.66224 17.335 5.71626 16.8067V16.8907C5.71626 20.2089 8.06178 22.9587 11.1878 23.5911C10.6009 23.7435 9.99706 23.8215 9.39064 23.8232C8.94635 23.8232 8.52608 23.7792 8.1018 23.7192C8.96636 26.4249 11.484 28.3902 14.4819 28.4542C12.1364 30.2914 9.19851 31.3721 6.00845 31.3721C5.43607 31.3721 4.90773 31.3521 4.35938 31.2881C7.38534 33.2293 10.9757 34.3501 14.8422 34.3501C27.3943 34.3501 34.2628 23.9513 34.2628 14.9255C34.2628 14.6293 34.2628 14.3331 34.2428 14.0369C35.5716 13.0642 36.7364 11.8595 37.665 10.5066Z" fill="#EF2779"/>
</svg>
