<svg xmlns="http://www.w3.org/2000/svg" width="42" height="42" viewBox="0 0 42 42" fill="none">
  <path d="M35.7321 4.81104H6.27302C5.56456 4.81104 4.99219 5.38341 4.99219 6.09187V35.551C4.99219 36.2594 5.56456 36.8318 6.27302 36.8318H35.7321C36.4406 36.8318 37.013 36.2594 37.013 35.551V6.09187C37.013 5.38341 36.4406 4.81104 35.7321 4.81104ZM32.0337 14.1571H29.4761C27.4708 14.1571 27.0825 15.1097 27.0825 16.5106V19.5966H31.8696L31.2452 24.4278H27.0825V36.8318H22.0913V24.4318H17.9166V19.5966H22.0913V16.0343C22.0913 11.8996 24.6169 9.64617 28.3073 9.64617C30.0765 9.64617 31.5934 9.77826 32.0377 9.8383V14.1571H32.0337Z" fill="#EF2779"/>
</svg>
