<svg xmlns="http://www.w3.org/2000/svg" width="41" height="41" viewBox="0 0 42 42" fill="none">
  <path d="M35.7165 4.81104H6.25739C5.54893 4.81104 4.97656 5.38341 4.97656 6.09187V35.551C4.97656 36.2594 5.54893 36.8318 6.25739 36.8318H35.7165C36.425 36.8318 36.9973 36.2594 36.9973 35.551V6.09187C36.9973 5.38341 36.425 4.81104 35.7165 4.81104ZM14.4747 32.0967H9.72364V16.8148H14.4747V32.0967ZM12.1012 14.7255C11.5565 14.7255 11.0241 14.564 10.5713 14.2614C10.1184 13.9588 9.76545 13.5287 9.55702 13.0255C9.34859 12.5223 9.29406 11.9686 9.40031 11.4344C9.50657 10.9003 9.76884 10.4096 10.154 10.0245C10.5391 9.63934 11.0298 9.37706 11.5639 9.27081C12.0981 9.16455 12.6518 9.21909 13.155 9.42751C13.6582 9.63594 14.0883 9.9889 14.3909 10.4418C14.6935 10.8946 14.855 11.427 14.855 11.9717C14.851 13.4927 13.6182 14.7255 12.1012 14.7255ZM32.2623 32.0967H27.5152V24.6639C27.5152 22.8908 27.4832 20.6133 25.0456 20.6133C22.576 20.6133 22.1957 22.5425 22.1957 24.5358V32.0967H17.4527V16.8148H22.0076V18.9042H22.0717C22.7041 17.7034 24.2531 16.4346 26.5666 16.4346C31.3777 16.4346 32.2623 19.6006 32.2623 23.7153V32.0967Z" fill="#EF2779"/>
</svg>
